<?xml version="1.0" encoding="UTF-8" standalone="no"?>
<svg width="16px" height="16px" viewBox="0 0 16 16" version="1.1" xmlns="http://www.w3.org/2000/svg" xmlns:xlink="http://www.w3.org/1999/xlink">
    <g stroke="none" stroke-width="1" fill="none" fill-rule="evenodd">
        <g fill="#FFFFFF">
            <path d="M8,11 C9.65685425,11 11,9.65685425 11,8 L11,3 C11,1.34314575 9.65685425,0 8,0 C6.34314575,0 5,1.34314575 5,3 L5,8 C5,9.65685425 6.34314575,11 8,11 Z" />
            <path d="M12,7 L12,8 C12,10.209139 10.209139,12 8,12 C5.790861,12 4,10.209139 4,8 L4,7 L3,7 L3,8 C3,10.7614237 5.23857625,13 8,13 L8,15 L6,15 C5.44771525,15 5,15.4477153 5,16 L11,16 C11,15.4477153 10.5522847,15 10,15 L8,15 L8,13 C10.7614237,13 13,10.7614237 13,8 L13,7 L12,7 Z" />
        </g>
    </g>
</svg>